<svg width="82" height="34" viewBox="0 0 82 34" fill="none" xmlns="http://www.w3.org/2000/svg">
<path d="M33.3808 27.2814C28.7661 27.2814 26.2056 24.355 26.2056 19.7404C26.2056 15.2665 28.6255 12.1994 33.2119 12.1994C37.7984 12.1994 40.2183 15.3228 40.2183 19.4872C40.2183 19.7686 40.1901 20.0218 40.162 20.3032H29.1882C29.2726 23.736 30.9046 25.2273 33.3808 25.2273C35.4348 25.2273 36.7292 24.1581 37.1794 22.4979H39.9088C39.2616 25.4524 37.1512 27.2814 33.3808 27.2814ZM33.2119 14.2535C30.9609 14.2535 29.4977 15.6041 29.1882 18.3335H37.2357C36.9261 15.6041 35.463 14.2535 33.2119 14.2535ZM53.1499 27H49.8296L46.1154 21.7945L42.373 27H39.0809L44.399 19.459L39.3623 12.4808H42.6544L46.1154 17.3206L49.5482 12.4808H52.8685L47.8318 19.459L53.1499 27ZM59.1852 27.2814C54.5706 27.2814 52.0101 24.355 52.0101 19.7404C52.0101 15.1258 54.5706 12.1994 59.1852 12.1994C63.7998 12.1994 66.3604 15.1258 66.3604 19.7404C66.3604 24.355 63.7998 27.2814 59.1852 27.2814ZM59.1852 25.0022C61.8583 25.0022 63.3778 23.2577 63.3778 19.7404C63.3778 16.2513 61.8583 14.4786 59.1852 14.4786C56.5121 14.4786 54.9927 16.2513 54.9927 19.7404C54.9927 23.2577 56.5121 25.0022 59.1852 25.0022ZM79.8754 27H76.8928V17.9396C76.8928 15.7448 76.1049 14.6193 74.0508 14.6193C71.8842 14.6193 70.4773 16.2513 70.4773 18.8963V27H67.4947V12.4808H70.3366V15.0132C71.1245 13.325 72.5314 12.1994 74.9513 12.1994C78.2715 12.1994 79.8754 13.8877 79.8754 17.405V27Z" fill="black"/>
<path d="M18.8829 10.2676L14.1712 14.4954L0.625 10.2676L14.1712 28.9907L18.8829 24.7629V10.2676Z" fill="black"/>
</svg>
