<svg width="59" height="34" viewBox="0 0 59 34" fill="none" xmlns="http://www.w3.org/2000/svg">
<path d="M23.6757 27.2899C18.8052 27.2899 16.0801 24.2459 16.0801 19.5204C16.0801 14.9109 18.6893 11.7509 23.5017 11.7509C28.3431 11.7509 30.9523 14.9399 30.9523 19.3465C30.9523 19.6654 30.9233 19.9553 30.8943 20.3032H19.8199C19.9359 23.3472 21.3854 24.7387 23.6757 24.7387C25.5311 24.7387 26.7487 23.811 27.1835 22.2745H30.6334C29.9956 25.3475 27.7054 27.2899 23.6757 27.2899ZM23.5017 14.3021C21.4434 14.3021 20.1388 15.4907 19.8199 17.868H27.2125C26.8936 15.4907 25.56 14.3021 23.5017 14.3021ZM35.6889 27H31.9491V6.3587H35.6889V27ZM40.9842 27H37.2444V12.0409H40.9842V27ZM39.1288 9.80858C37.7372 9.80858 36.9545 8.96785 36.9545 7.86621C36.9545 6.76456 37.7372 5.92384 39.1288 5.92384C40.5203 5.92384 41.2741 6.76456 41.2741 7.86621C41.2741 8.96785 40.5203 9.80858 39.1288 9.80858ZM49.5554 27.2899C44.685 27.2899 41.9599 24.2459 41.9599 19.5204C41.9599 14.8239 44.685 11.7509 49.5554 11.7509C54.4548 11.7509 57.18 14.8239 57.18 19.5204C57.18 24.2459 54.4548 27.2899 49.5554 27.2899ZM49.5554 24.4488C52.0486 24.4488 53.4402 22.8254 53.4402 19.5204C53.4402 16.2155 52.0486 14.592 49.5554 14.592C47.0912 14.592 45.6997 16.2155 45.6997 19.5204C45.6997 22.8254 47.0912 24.4488 49.5554 24.4488Z" fill="black"/>
<path d="M11.6787 10.8711L3.23532 19.9307L11.6787 28.9902" stroke="black" stroke-width="3.62382"/>
</svg>
