<svg width="112" height="34" viewBox="0 0 112 34" fill="none" xmlns="http://www.w3.org/2000/svg">
<path d="M6.63167 27.2833C3.14667 27.2833 1.305 25.555 1.305 22.8633C1.305 20.5967 2.60833 18.755 6.34833 18.4433L9.465 18.1883C10.6833 18.075 11.0233 17.7067 11.0233 17.0833C11.0233 15.8367 10.2583 15.1283 8.785 15.1283C7.34 15.1283 6.54667 15.78 6.405 17.0833H2.09833C2.09833 14.0517 4.025 12.0967 8.72833 12.0967C13.4317 12.0967 15.3583 14.0517 15.3583 17.0833V23.26C15.3583 25.2433 15.5283 26.5183 15.8117 27H11.8733C11.4767 26.49 11.25 25.9233 11.25 24.96C10.4283 26.49 9.06833 27.2833 6.63167 27.2833ZM7.90667 24.3933C9.89 24.3933 11.0233 22.8917 11.0233 21.1067V20.285C10.825 20.5117 10.2583 20.6533 9.465 20.7383L7.87833 20.8517C6.26333 20.9933 5.64 21.645 5.64 22.5517C5.64 23.6567 6.32 24.3933 7.90667 24.3933ZM22.4045 27.17C18.8345 27.17 17.7011 26.0367 17.7011 22.5517V15.4117H15.4911V12.38H17.7011V7.96H22.0078V12.38H25.0111V15.4117H22.0078V22.7217C22.0078 23.7417 22.4611 24.11 23.4811 24.11H25.0111V27C24.3595 27.0567 23.0845 27.17 22.4045 27.17ZM31.8131 27.17C28.2431 27.17 27.1098 26.0367 27.1098 22.5517V15.4117H24.8998V12.38H27.1098V7.96H31.4165V12.38H34.4198V15.4117H31.4165V22.7217C31.4165 23.7417 31.8698 24.11 32.8898 24.11H34.4198V27C33.7681 27.0567 32.4931 27.17 31.8131 27.17ZM39.6068 27H35.2718V12.38H39.3801V15.525C40.1168 12.975 41.3918 12.1817 43.3185 12.1817C43.7151 12.1817 44.3951 12.2667 44.6785 12.38V16.1483L43.1485 16.12C40.9951 16.12 39.6068 17.65 39.6068 20.3133V27ZM49.4405 27.2833C45.9555 27.2833 44.1138 25.555 44.1138 22.8633C44.1138 20.5967 45.4171 18.755 49.1571 18.4433L52.2738 18.1883C53.4921 18.075 53.8321 17.7067 53.8321 17.0833C53.8321 15.8367 53.0671 15.1283 51.5938 15.1283C50.1488 15.1283 49.3555 15.78 49.2138 17.0833H44.9071C44.9071 14.0517 46.8338 12.0967 51.5371 12.0967C56.2405 12.0967 58.1671 14.0517 58.1671 17.0833V23.26C58.1671 25.2433 58.3371 26.5183 58.6205 27H54.6821C54.2855 26.49 54.0588 25.9233 54.0588 24.96C53.2371 26.49 51.8771 27.2833 49.4405 27.2833ZM50.7155 24.3933C52.6988 24.3933 53.8321 22.8917 53.8321 21.1067V20.285C53.6338 20.5117 53.0671 20.6533 52.2738 20.7383L50.6871 20.8517C49.0721 20.9933 48.4488 21.645 48.4488 22.5517C48.4488 23.6567 49.1288 24.3933 50.7155 24.3933ZM66.5666 27.2833C61.7216 27.2833 58.9733 24.2517 58.9733 19.69C58.9733 15.1283 61.7216 12.0967 66.5666 12.0967C71.44 12.0967 73.7066 15.0717 73.7066 18.1033H69.6266C69.4 16.4883 68.4933 15.355 66.5666 15.355C64.4983 15.355 63.3083 16.7433 63.3083 19.69C63.3083 22.6367 64.4983 24.025 66.5666 24.025C68.21 24.025 69.3716 23.2033 69.6266 21.1633H73.7066C73.7066 24.4783 71.27 27.2833 66.5666 27.2833ZM80.1558 27.17C76.5858 27.17 75.4524 26.0367 75.4524 22.5517V15.4117H73.2424V12.38H75.4524V7.96H79.7591V12.38H82.7624V15.4117H79.7591V22.7217C79.7591 23.7417 80.2124 24.11 81.2324 24.11H82.7624V27C82.1108 27.0567 80.8358 27.17 80.1558 27.17ZM89.9894 27.2833C85.1728 27.2833 83.0478 25.2717 83.0478 22.2967H87.2694C87.4394 23.7133 88.1194 24.4783 90.0461 24.4783C91.8594 24.4783 92.5961 23.77 92.5961 22.8633C92.5961 22.0417 91.9161 21.5883 90.7544 21.4183L88.4311 21.1067C84.7478 20.5683 83.4444 19.35 83.4444 16.8C83.4444 14.1083 85.4278 12.0967 89.9894 12.0967C94.5511 12.0967 96.5344 14.1083 96.5344 16.8567H92.3128C92.1711 15.78 91.7461 14.9017 89.9328 14.9017C88.3744 14.9017 87.7794 15.525 87.7794 16.4317C87.7794 17.225 88.2044 17.5933 89.1678 17.735L91.4628 18.0467C94.9478 18.5567 96.9311 19.6333 96.9311 22.58C96.9311 25.2717 94.8061 27.2833 89.9894 27.2833Z" fill="black"/>
<path fill-rule="evenodd" clip-rule="evenodd" d="M106.453 26.263C108.885 26.263 110.857 24.3557 110.857 22.0029C110.857 19.6501 108.885 17.7428 106.453 17.7428C104.021 17.7428 102.049 19.6501 102.049 22.0029C102.049 24.3557 104.021 26.263 106.453 26.263ZM106.453 27.0058C109.309 27.0058 111.625 24.7659 111.625 22.0029C111.625 19.2399 109.309 17 106.453 17C103.597 17 101.281 19.2399 101.281 22.0029C101.281 24.7659 103.597 27.0058 106.453 27.0058Z" fill="black"/>
<path d="M105.72 22.2575V21.7622H106.674C106.865 21.7622 107.012 21.7153 107.116 21.6214C107.224 21.5241 107.278 21.3903 107.278 21.2199C107.278 21.067 107.226 20.9384 107.122 20.8341C107.018 20.7298 106.87 20.6777 106.68 20.6777H105.72V20.1562H106.707C106.944 20.1562 107.152 20.2032 107.332 20.297C107.512 20.3874 107.65 20.5125 107.747 20.6724C107.848 20.8289 107.898 21.0079 107.898 21.2095C107.898 21.4215 107.848 21.6058 107.747 21.7622C107.65 21.9186 107.512 22.0403 107.332 22.1272C107.152 22.2141 106.944 22.2575 106.707 22.2575H105.72ZM105.294 23.8061V20.1562H105.914V23.8061H105.294ZM107.364 23.8061L106.044 22.221L106.621 22.0177L108.146 23.8061H107.364Z" fill="black"/>
</svg>
