<svg width="54" height="54" viewBox="0 0 54 54" fill="none" xmlns="http://www.w3.org/2000/svg">
<path d="M31.1751 29.5169L40.0553 29.5169C40.6441 29.5169 41.2088 29.7508 41.6252 30.1672C42.0415 30.5835 42.2754 31.1482 42.2754 31.737L42.2754 38.3971C42.2754 38.9859 42.0415 39.5506 41.6252 39.9669C41.2088 40.3833 40.6441 40.6172 40.0553 40.6172L33.3952 40.6172C32.8064 40.6172 32.2417 40.3833 31.8254 39.9669C31.409 39.5506 31.1751 38.9859 31.1751 38.3971L31.1751 25.0768C31.1751 19.1559 34.1345 15.4573 40.0553 13.9766" stroke="white" stroke-width="2.90625" stroke-linecap="round" stroke-linejoin="round"/>
<path d="M11.1947 29.5169L20.0749 29.5169C20.6637 29.5169 21.2283 29.7508 21.6447 30.1672C22.061 30.5835 22.2949 31.1482 22.2949 31.737L22.2949 38.3971C22.2949 38.9859 22.061 39.5506 21.6447 39.9669C21.2283 40.3833 20.6637 40.6172 20.0749 40.6172L13.4147 40.6172C12.8259 40.6172 12.2612 40.3833 11.8449 39.9669C11.4286 39.5506 11.1947 38.9859 11.1947 38.3971L11.1947 25.0768C11.1947 19.1559 14.154 15.4573 20.0749 13.9766" stroke="white" stroke-width="2.90625" stroke-linecap="round" stroke-linejoin="round"/>
</svg>
